<svg xmlns="http://www.w3.org/2000/svg" viewBox="0 0 500 378.06"><defs><style>.cls-1{fill:#ebebeb;}.cls-2{fill:#f0f0f0;}.cls-3{fill:#f5f5f5;}.cls-4{fill:#e0e0e0;}.cls-12,.cls-5{fill:#fff;}.cls-6{fill:#e6e6e6;}.cls-7{fill:#fafafa;}.cls-8{fill:#407bff;}.cls-9{fill:#ff8b7b;}.cls-10{fill:#263238;}.cls-11{opacity:0.2;}.cls-12{opacity:0.1;}.cls-13{fill:#ff5652;}</style></defs><g id="Layer_2" data-name="Layer 2"><g id="Background_Complete" data-name="Background Complete"><rect class="cls-1" y="332.9" width="500" height="0.25"/><rect class="cls-1" x="52.46" y="342.42" width="33.12" height="0.25"/><rect class="cls-1" x="145.33" y="339.71" width="34.5" height="0.25"/><rect class="cls-1" x="76.08" y="347.25" width="55.42" height="0.25"/><rect class="cls-1" x="405.64" y="348.17" width="43.19" height="0.25"/><rect class="cls-1" x="370.43" y="341.92" width="22.9" height="0.25"/><rect class="cls-1" x="195.63" y="345.93" width="93.68" height="0.25"/><path class="cls-1" d="M237,288.3H43.91a5.71,5.71,0,0,1-5.7-5.71V11.16a5.71,5.71,0,0,1,5.7-5.71H237a5.71,5.71,0,0,1,5.71,5.71V282.59A5.71,5.71,0,0,1,237,288.3ZM43.91,5.7a5.46,5.46,0,0,0-5.45,5.46V282.59a5.46,5.46,0,0,0,5.45,5.46H237a5.47,5.47,0,0,0,5.46-5.46V11.16A5.47,5.47,0,0,0,237,5.7Z"/><path class="cls-1" d="M453.31,288.3H260.21a5.72,5.72,0,0,1-5.71-5.71V11.16a5.72,5.72,0,0,1,5.71-5.71h193.1A5.71,5.71,0,0,1,459,11.16V282.59A5.71,5.71,0,0,1,453.31,288.3ZM260.21,5.7a5.47,5.47,0,0,0-5.46,5.46V282.59a5.47,5.47,0,0,0,5.46,5.46h193.1a5.47,5.47,0,0,0,5.46-5.46V11.16a5.47,5.47,0,0,0-5.46-5.46Z"/><rect class="cls-2" x="283.42" y="202.09" width="28.34" height="122.9"/><rect class="cls-2" x="288.86" y="324.99" width="139.75" height="7.79"/><rect class="cls-3" x="311.76" y="202.09" width="122.29" height="122.9" transform="translate(745.81 527.08) rotate(180)"/><rect class="cls-2" x="322.9" y="217.22" width="100.01" height="40.31" transform="translate(745.81 474.74) rotate(180)"/><rect class="cls-2" x="322.9" y="269.56" width="100.01" height="40.31" transform="translate(745.81 579.42) rotate(180)"/><path class="cls-3" d="M384.13,220.62H361.68a2.78,2.78,0,0,1-2.77-2.77h0a2.77,2.77,0,0,1,2.77-2.76h22.45a2.77,2.77,0,0,1,2.77,2.76h0A2.78,2.78,0,0,1,384.13,220.62Z"/><path class="cls-3" d="M384.13,273H361.68a2.77,2.77,0,0,1-2.77-2.76h0a2.77,2.77,0,0,1,2.77-2.76h22.45a2.77,2.77,0,0,1,2.77,2.76h0A2.77,2.77,0,0,1,384.13,273Z"/><rect class="cls-4" x="321.34" y="32.58" width="50.96" height="55.58"/><rect class="cls-3" x="323.06" y="32.58" width="52.29" height="55.58"/><rect class="cls-5" x="325.79" y="38.61" width="46.82" height="43.52" transform="translate(409.58 -288.83) rotate(90)"/><path class="cls-3" d="M354.53,68.72l5.16-8.94a6.15,6.15,0,0,0-5.32-9.23H344a6.16,6.16,0,0,0-5.33,9.23l5.17,8.94A6.15,6.15,0,0,0,354.53,68.72Z"/><rect class="cls-4" x="94.81" y="129.37" width="31.47" height="203.53"/><polygon class="cls-6" points="206.48 332.9 101.11 332.9 90.04 82.39 195.41 82.39 206.48 332.9"/><polygon class="cls-2" points="221.85 332.9 105.3 332.9 94.23 82.39 210.78 82.39 221.85 332.9"/><polygon class="cls-5" points="116.71 320.62 107.38 94.67 199.37 94.67 208.7 320.62 116.71 320.62"/><polygon class="cls-7" points="156.23 320.62 124.96 94.67 134.77 94.67 166.04 320.62 156.23 320.62"/><polygon class="cls-7" points="170.2 320.62 138.93 94.67 155.66 94.67 186.93 320.62 170.2 320.62"/><path class="cls-6" d="M378.7,197H381c0-4.74,0-16.77.24-44.34.41-50,1.21-53,1.21-53L377,122.74C373.49,148.28,378,174,378.7,197Z"/><path class="cls-6" d="M374.15,119.3c-7.89-9.4-24.75-12.14-42-14.48-6.77-.92,17.81,14.56,29.82,25.56,9.34,8.54,15.3,10.9,17.86,19.42C381.16,139.18,380.94,127.4,374.15,119.3Z"/><path class="cls-6" d="M384.61,136.1c7.89-9.4,24.74-12.14,42-14.48,6.78-.91-17.8,14.57-29.82,25.56-9.33,8.55-15.3,10.91-17.86,19.42C377.6,156,377.81,144.21,384.61,136.1Z"/><path class="cls-6" d="M381.23,97.46c5.92-11.24,20.8-21.82,37.5-25.83,6.56-1.58-15.19,20.75-23.45,35.15C388.86,118,380.34,131.1,379,140.54,377,121.84,375.32,108.7,381.23,97.46Z"/><path class="cls-2" d="M380.53,202.42h0c-7,0-12.87-3.54-13.27-8.06l-1.17-7.72H395l-1.17,7.72C393.4,198.88,387.58,202.42,380.53,202.42Z"/><polygon class="cls-2" points="396.85 189.61 364.21 189.61 363.28 181.01 397.79 181.01 396.85 189.61"/></g><g id="Shadow"><ellipse id="_Path_" data-name="&lt;Path&gt;" class="cls-3" cx="250" cy="366.74" rx="193.89" ry="11.32"/></g><g id="OK"><path class="cls-8" d="M280.92,105a105,105,0,0,0-210,0c0,45.53,28.12,82.75,69.49,98.84l72.15,28-13.69-24.41A105.05,105.05,0,0,0,280.92,105Z"/><path class="cls-5" d="M173.57,200.5a97.84,97.84,0,1,1,97.85-97.84A97.95,97.95,0,0,1,173.57,200.5Zm0-194.68a96.84,96.84,0,1,0,96.85,96.84A97,97,0,0,0,173.57,5.82Z"/><path class="cls-5" d="M104.92,109.77q0-20.34,8.27-32.57a30.58,30.58,0,0,1,23.05-13.83q15.13-1.63,23.33,8.61t8.19,30.3q0,14.56-3.58,24.27a37.41,37.41,0,0,1-10.34,15.62,29.75,29.75,0,0,1-16.86,7q-10.26,1.11-17-2.64t-10.9-13Q104.92,124.33,104.92,109.77Zm18.74-1.92q0,12.59,3.41,17.71a9.29,9.29,0,0,0,9.29,4.49,11.9,11.9,0,0,0,9.35-6.4Q149,117.9,149,104q0-11.73-3.45-16.76a9.44,9.44,0,0,0-9.38-4.4q-5.66.61-9.1,6.48T123.66,107.85Z"/><path class="cls-5" d="M177.94,60.27l18.74-2V89.62l19.63-33.51,24.93-2.71L219.11,87.15l23.12,49.21-23.08,2.5-12.79-32.77L196.68,121V141.3l-18.74,2Z"/><path class="cls-8" d="M85.62,25a7.63,7.63,0,1,1,7.62-7.63A7.64,7.64,0,0,1,85.62,25Zm0-14.25a6.63,6.63,0,1,0,6.62,6.62A6.63,6.63,0,0,0,85.62,10.71Z"/><path class="cls-8" d="M159.79,228.1a5.1,5.1,0,1,1,5.1-5.09A5.09,5.09,0,0,1,159.79,228.1Zm0-9.19a4.1,4.1,0,1,0,4.1,4.1A4.1,4.1,0,0,0,159.79,218.91Z"/><path class="cls-8" d="M254.82,22.62A1.84,1.84,0,1,1,253,20.78,1.84,1.84,0,0,1,254.82,22.62Z"/><path class="cls-8" d="M141.22,221.17a1.84,1.84,0,1,1-1.83-1.84A1.84,1.84,0,0,1,141.22,221.17Z"/></g><g id="Character"><polygon class="cls-9" points="328.42 336.78 334.44 360.34 345.73 357.57 339.7 334 328.42 336.78"/><path class="cls-10" d="M346,352.76l-12.74,2.76a.81.81,0,0,0-.65.88l.88,9.36a1.7,1.7,0,0,0,2.05,1.46c4-1,5.21-1.53,10.27-2.64,5.92-1.3,8-.95,15-2.47,4.2-.92,4-5.32,2.13-5.33A28.34,28.34,0,0,1,348.67,353,3.7,3.7,0,0,0,346,352.76Z"/><polygon class="cls-11" points="328.41 336.79 331.52 348.93 342.81 346.16 339.7 334.01 328.41 336.79"/><path class="cls-8" d="M308.3,246c-13.44-39.55-24.09-86.2-24.09-86.2l38.35-2.42s5.65,60.56,8.6,88.48c3.06,29,12.59,94.55,12.59,94.55l-17.3,3.51S310.22,282.21,308.3,246Z"/><path class="cls-11" d="M301.9,181.8l-9.31,11.51c2.37,8.88,5.15,18.86,8.19,29.07A200.08,200.08,0,0,0,301.9,181.8Z"/><path class="cls-10" d="M343.49,342.86l-15.86,3.48a1.33,1.33,0,0,1-1.53-.86l-1.75-5.12a1.32,1.32,0,0,1,.94-1.7l17.22-4.05a1.31,1.31,0,0,1,1.61,1.19l.4,5.69A1.3,1.3,0,0,1,343.49,342.86Z"/><path class="cls-12" d="M343.49,342.86l-15.86,3.48a1.33,1.33,0,0,1-1.53-.86l-1.75-5.12a1.32,1.32,0,0,1,.94-1.7l17.22-4.05a1.31,1.31,0,0,1,1.61,1.19l.4,5.69A1.3,1.3,0,0,1,343.49,342.86Z"/><polygon class="cls-9" points="265.16 335.96 264.45 360.27 276.08 360.11 276.79 335.8 265.16 335.96"/><path class="cls-10" d="M276.36,355.12,264,355.3a.81.81,0,0,0-.81.73l-1,9.35a1.71,1.71,0,0,0,1.72,1.84c4.11-.13,5.41-.47,10.59-.55,6.06-.1,7.37.66,14.47.55,4.3-.07,5-4.41,3.15-4.8A28.4,28.4,0,0,1,279,355.9,3.7,3.7,0,0,0,276.36,355.12Z"/><polygon class="cls-11" points="265.16 335.97 264.79 348.5 276.43 348.33 276.79 335.8 265.16 335.97"/><path class="cls-8" d="M268.06,245.22c3.28-41.61.51-64.05,5.34-84.72l34.9-2.16s-10.83,61.15-16.82,88.82S279.07,342,279.07,342l-17.15.21S259.82,277.68,268.06,245.22Z"/><path class="cls-10" d="M279,345.09l-16.22.25a1.33,1.33,0,0,1-1.34-1.23l-.35-5.36a1.32,1.32,0,0,1,1.27-1.4l17.67-.54a1.31,1.31,0,0,1,1.33,1.56L280.29,344A1.31,1.31,0,0,1,279,345.09Z"/><path class="cls-12" d="M279,345.09l-16.22.25a1.33,1.33,0,0,1-1.34-1.23l-.35-5.36a1.32,1.32,0,0,1,1.27-1.4l17.67-.54a1.31,1.31,0,0,1,1.33,1.56L280.29,344A1.31,1.31,0,0,1,279,345.09Z"/><path class="cls-9" d="M321.79,87.85l2,3.28L326,94.46c1.43,2.21,2.92,4.37,4.41,6.48s3.07,4.11,4.66,6a31.62,31.62,0,0,0,4.72,4.58l-4.89-.73a30.8,30.8,0,0,0,5.79-1.8,63.88,63.88,0,0,0,6-2.93c2-1.1,4-2.31,6-3.57s4-2.63,5.89-3.91l.16-.1a3.49,3.49,0,0,1,4.76,5,60.25,60.25,0,0,1-5.11,6,68.19,68.19,0,0,1-5.77,5.33,54.85,54.85,0,0,1-6.63,4.67A36.92,36.92,0,0,1,338,123a5.68,5.68,0,0,1-4.51-.51l-.38-.22a37.93,37.93,0,0,1-7.82-6.19q-1.63-1.64-3.13-3.32t-2.85-3.42c-1.84-2.31-3.53-4.67-5.14-7.07-.8-1.21-1.59-2.42-2.34-3.66s-1.47-2.44-2.23-3.82a7,7,0,0,1,12-7.07Z"/><path class="cls-10" d="M306.63,74.51C320.18,76.05,330.43,97,330.43,97l-14,14.87s-6.22-7.42-12.91-16.8C296.25,84.88,295.91,73.29,306.63,74.51Z"/><path class="cls-5" d="M305.56,77.67c-5.21-1.85-21.53.92-21.53.92,4.57,5.85,7.61,54.31,8,82.18,4.95.68,16.71.59,21.12-.43C312.6,149.4,309,97.12,305.56,77.67Z"/><path class="cls-10" d="M323.36,92.35A20.73,20.73,0,0,0,302.7,74.13a143.9,143.9,0,0,0-29,3.2,11.37,11.37,0,0,0-8.65,13.76c7.18,30.13,5.29,58.71,7.21,72a93.12,93.12,0,0,0,23.93,2.75s-.29-3.7-.65-9.69c-.13-2.33-3.14-72.48-7.83-78.51,0,0,10.06-1,15.27.82,3.87,21.84,7.49,87.41,7.49,87.42,8.23-.59,14-5.39,13.89-6.76C326,132.31,325.2,108,323.36,92.35Z"/><path class="cls-9" d="M282.35,53c1.53,5.88,3.32,16.24.51,21.9a2.68,2.68,0,0,0,.7,3.34c3.61,2.79,8.25,5.38,15,5,7.09-.44,6.56-4.68,4.76-7.51a2.59,2.59,0,0,0-1.67-1.18c-6.7-1.38-6.78-6.71-5.82-11.83Z"/><path class="cls-11" d="M287.84,56.94l8,5.74a21.33,21.33,0,0,0-.42,3.76c-2.89-.13-7-2.89-7.5-5.86A10.16,10.16,0,0,1,287.84,56.94Z"/><path class="cls-10" d="M304.47,45.46c1.81-1.2,2.77-9.46,0-12.15,2.86-2.52,1.21-8.13-2.71-9.08s-6.8,1.63-11.85-1.61c-.87,1.18-.37,2.69,1.14,3.57C293.23,27.46,304.47,45.46,304.47,45.46Z"/><path class="cls-9" d="M279.89,43c1.36,9,1.69,14.39,6.69,18.61,7.53,6.35,18.38,1.1,19.75-8.18,1.24-8.35-1.19-21.72-10.4-24.47A12.58,12.58,0,0,0,279.89,43Z"/><path class="cls-10" d="M282.65,50.62c2.41-1.12,1.09-10.79.5-12.69,6.33.88,24.13-3.87,18.27-10.79-4.28-5-16.77.72-22.09-3.59-1.58,1.69.62,3.69.62,3.69s-8.45,2-5,8C268.09,34.93,272.79,51.62,282.65,50.62Z"/><path class="cls-10" d="M276.54,31.42c-3.33,2.61-4.64,1.44-6.57-.32-.46,5.13,3.62,5.79,5.51,5.26C276.72,34.76,276.54,31.42,276.54,31.42Z"/><path class="cls-9" d="M276.93,51.28a8.58,8.58,0,0,0,5,3.87c2.65.69,3.65-2,2.64-4.65-.91-2.43-3.39-5.71-5.92-5.2S275.49,48.9,276.93,51.28Z"/><path class="cls-10" d="M292.31,43.78c.07.74.51,1.3,1,1.26s.82-.69.75-1.43-.51-1.3-1-1.25S292.25,43,292.31,43.78Z"/><path class="cls-10" d="M300.64,42.35c.07.74.51,1.3,1,1.26s.82-.69.75-1.43-.51-1.3-1-1.25S300.58,41.61,300.64,42.35Z"/><path class="cls-13" d="M297.67,43.22s2.06,4.11,4.09,6c-1.2,1.35-3.48,1-3.48,1Z"/><path class="cls-10" d="M296,53.82a6,6,0,0,1-4.57-1.57.22.22,0,1,1,.31-.3,5.87,5.87,0,0,0,5.14,1.32.22.22,0,0,1,.26.17.23.23,0,0,1-.18.26A6.63,6.63,0,0,1,296,53.82Z"/><path class="cls-10" d="M289.19,42.56a.41.41,0,0,1-.22,0,.45.45,0,0,1-.23-.58,4.4,4.4,0,0,1,3.05-2.6.43.43,0,0,1,.5.36.45.45,0,0,1-.36.51h0a3.48,3.48,0,0,0-2.39,2.08A.43.43,0,0,1,289.19,42.56Z"/><path class="cls-10" d="M303.81,38.38a.46.46,0,0,1-.4-.09,3.41,3.41,0,0,0-3-.83.44.44,0,0,1-.54-.3.45.45,0,0,1,.3-.54,4.31,4.31,0,0,1,3.84,1,.45.45,0,0,1,0,.62A.52.52,0,0,1,303.81,38.38Z"/><path class="cls-9" d="M274.83,96.7l-1.58,3.54-1.57,3.67c-1,2.46-2,4.93-2.95,7.42a136.9,136.9,0,0,0-4.79,15l-.43,1.87-.21.94-.05.24c0,.08,0,0,0,0a.09.09,0,0,0,0,0,6.15,6.15,0,0,0,.2,2.15,27.7,27.7,0,0,0,1,3.34c.4,1.17.86,2.37,1.36,3.57,2,4.82,4.48,9.77,6.82,14.66l.05.09a3.5,3.5,0,0,1-5.66,4,85.22,85.22,0,0,1-5.7-6.54,87.12,87.12,0,0,1-5.08-7.14A45.42,45.42,0,0,1,251.9,135a17.79,17.79,0,0,1-1.22-6c0-.35,0-.72.06-1.08l0-.5,0-.28L251,126l.31-2.23a112.06,112.06,0,0,1,4.33-17.1c.93-2.76,1.94-5.47,3-8.15.55-1.35,1.12-2.68,1.73-4s1.2-2.59,1.93-4a7,7,0,0,1,12.61,6Z"/><path class="cls-10" d="M272.54,77.65c-15.11,3.81-19.31,23.13-19.31,23.13L272,114.24s4.65-4.87,6.05-16.3C278.72,92.48,275.6,77.5,272.54,77.65Z"/><path class="cls-9" d="M270.21,150.87l8.73,3.26-6.68,9s-7.55-3.91-6.13-8.26Z"/><path class="cls-9" d="M283,162.9l-2.87,2.75a3.23,3.23,0,0,1-4.17.25l-3.73-2.81,6.68-9,4.15,4.16A3.22,3.22,0,0,1,283,162.9Z"/><path class="cls-9" d="M369.43,101.82l-1.07-4.88a2.13,2.13,0,0,0-2.26-1.66h0a10.22,10.22,0,0,0-4.39,1.41l-6,3.55.53,5.66c2.49,3.84,10.27.4,10.27.4l.64-.24A3.71,3.71,0,0,0,369.43,101.82Z"/><path class="cls-9" d="M354.94,102.42c-.37-1.91.46-3.45.27-5.25-.16-1.57.26-3.33-.24-5.47.6-1,2.77-.17,2.8,2.48.67,2.71,3.66,2.32,4.85,2C362.62,96.2,358.58,103.23,354.94,102.42Z"/></g></g></svg>